# xmcd
#
# Track frame offsets: 
#        150
#        11269
#        25874
#        41575
#        51678
#        62920
#        75601
#        89467
#        105470
#        119331
#        135915
#        149425
#
# Disc length: 2174 seconds
#
# Revision: 0
# Processed by: cddbd v1.5.2PL0 Copyright (c) Steve Scherf et al.
# Submitted via: ExactAudioCopy v1.0b4
#
DISCID=9d087c0c
DTITLE=Mac Wiseman - Songs from my mother's hand
DYEAR=2014
DGENRE=
TTITLE0=Blue Ridge mountain blues
TTITLE1=The wreck of the number nine
TTITLE2=You're a flower blooming in the wildwood [with Sierra Hull]
TTITLE3=Old rattler
TTITLE4=When it's lamp lighting time in the valley
TTITLE5=Answer to weeping willow
TTITLE6=The eastbound train
TTITLE7=Put my little shoes away
TTITLE8=Answer to great speckled bird
TTITLE9=Little rosewood casket
TTITLE10=I heard my mother call my name in prayer
TTITLE11=Will there be any stars in my crown
EXTD=
EXTT0=
EXTT1=
EXTT2=
EXTT3=
EXTT4=
EXTT5=
EXTT6=
EXTT7=
EXTT8=
EXTT9=
EXTT10=
EXTT11=
PLAYORDER=
